# Blender v2.92.0 OBJ File: ''
# www.blender.org
mtllib cube.mtl
o Cube
v 1.650847 0.522680 0.038873
v 1.043556 -1.367969 -0.199126
v 0.329096 0.760679 1.520876
v -0.278194 -1.129971 1.282877
v 0.278194 1.129971 -1.282877
v -0.329096 -0.760679 -1.520876
v -1.043556 1.367969 0.199126
v -1.650847 -0.522680 -0.038873
vt 0.625000 0.500000
vt 0.875000 0.500000
vt 0.875000 0.750000
vt 0.625000 0.750000
vt 0.375000 0.750000
vt 0.625000 1.000000
vt 0.375000 1.000000
vt 0.375000 0.000000
vt 0.625000 0.000000
vt 0.625000 0.250000
vt 0.375000 0.250000
vt 0.125000 0.500000
vt 0.375000 0.500000
vt 0.125000 0.750000
vn 0.3036 0.9453 0.1190
vn -0.6609 0.1190 0.7410
vn -0.6863 0.3036 -0.6609
vn -0.3036 -0.9453 -0.1190
vn 0.6863 -0.3036 0.6609
vn 0.6609 -0.1190 -0.7410
usemtl Material
s off
f 1/1/1 5/2/1 7/3/1 3/4/1
f 4/5/2 3/4/2 7/6/2 8/7/2
f 8/8/3 7/9/3 5/10/3 6/11/3
f 6/12/4 2/13/4 4/5/4 8/14/4
f 2/13/5 1/1/5 3/4/5 4/5/5
f 6/11/6 5/10/6 1/1/6 2/13/6
